<svg id="visual" viewBox="0 0 900 600" width="900" height="600" xmlns="http://www.w3.org/2000/svg" xmlns:xlink="http://www.w3.org/1999/xlink" version="1.1"><rect x="0" y="0" width="900" height="600" fill="#001220"></rect><path d="M0 451L21.5 446.5C43 442 86 433 128.8 419C171.7 405 214.3 386 257.2 389.5C300 393 343 419 385.8 416.5C428.7 414 471.3 383 514.2 383.8C557 384.7 600 417.3 642.8 428.7C685.7 440 728.3 430 771.2 418.2C814 406.3 857 392.7 878.5 385.8L900 379L900 601L878.5 601C857 601 814 601 771.2 601C728.3 601 685.7 601 642.8 601C600 601 557 601 514.2 601C471.3 601 428.7 601 385.8 601C343 601 300 601 257.2 601C214.3 601 171.7 601 128.8 601C86 601 43 601 21.5 601L0 601Z" fill="#fa7268"></path><path d="M0 488L21.5 487C43 486 86 484 128.8 482.2C171.7 480.3 214.3 478.7 257.2 472.3C300 466 343 455 385.8 450.5C428.7 446 471.3 448 514.2 445.8C557 443.7 600 437.3 642.8 433.7C685.7 430 728.3 429 771.2 434.2C814 439.3 857 450.7 878.5 456.3L900 462L900 601L878.5 601C857 601 814 601 771.2 601C728.3 601 685.7 601 642.8 601C600 601 557 601 514.2 601C471.3 601 428.7 601 385.8 601C343 601 300 601 257.2 601C214.3 601 171.7 601 128.8 601C86 601 43 601 21.5 601L0 601Z" fill="#eb5967"></path><path d="M0 517L21.5 514C43 511 86 505 128.8 501.2C171.7 497.3 214.3 495.7 257.2 493.2C300 490.7 343 487.3 385.8 487.3C428.7 487.3 471.3 490.7 514.2 486.7C557 482.7 600 471.3 642.8 471.8C685.7 472.3 728.3 484.7 771.2 495C814 505.3 857 513.7 878.5 517.8L900 522L900 601L878.5 601C857 601 814 601 771.2 601C728.3 601 685.7 601 642.8 601C600 601 557 601 514.2 601C471.3 601 428.7 601 385.8 601C343 601 300 601 257.2 601C214.3 601 171.7 601 128.8 601C86 601 43 601 21.5 601L0 601Z" fill="#da3f67"></path><path d="M0 536L21.5 536.2C43 536.3 86 536.7 128.8 541.5C171.7 546.3 214.3 555.7 257.2 555.5C300 555.3 343 545.7 385.8 545.2C428.7 544.7 471.3 553.3 514.2 549.5C557 545.7 600 529.3 642.8 523.3C685.7 517.3 728.3 521.7 771.2 528.2C814 534.7 857 543.3 878.5 547.7L900 552L900 601L878.5 601C857 601 814 601 771.2 601C728.3 601 685.7 601 642.8 601C600 601 557 601 514.2 601C471.3 601 428.7 601 385.8 601C343 601 300 601 257.2 601C214.3 601 171.7 601 128.8 601C86 601 43 601 21.5 601L0 601Z" fill="#c62368"></path></svg>